<svg width="16" height="19" viewBox="0 0 16 19" fill="none" xmlns="http://www.w3.org/2000/svg">
<path d="M15.432 1.94937V1.25C15.432 1.05109 15.353 0.860322 15.2123 0.71967C15.0717 0.579018 14.8809 0.5 14.682 0.5H1.31699C1.11807 0.5 0.927307 0.579018 0.786655 0.71967C0.646003 0.860322 0.566985 1.05109 0.566985 1.25V1.94937C0.498548 2.48234 0.114641 6.20281 2.29808 8.73172C3.46386 10.0817 5.12745 10.8341 7.24949 10.9752V17H3.49949C3.30057 17 3.10981 17.079 2.96916 17.2197C2.8285 17.3603 2.74949 17.5511 2.74949 17.75C2.74949 17.9489 2.8285 18.1397 2.96916 18.2803C3.10981 18.421 3.30057 18.5 3.49949 18.5H12.4995C12.6984 18.5 12.8892 18.421 13.0298 18.2803C13.1705 18.1397 13.2495 17.9489 13.2495 17.75C13.2495 17.5511 13.1705 17.3603 13.0298 17.2197C12.8892 17.079 12.6984 17 12.4995 17H8.74949V10.9752C10.8715 10.8345 12.5351 10.0817 13.7009 8.73172C15.8843 6.20281 15.4995 2.48234 15.432 1.94937ZM2.05855 2.10922C2.06417 2.07308 2.06699 2.03657 2.06699 2H13.932C13.932 2.03657 13.9348 2.07308 13.9404 2.10922C14.0214 2.82052 14.0214 3.5387 13.9404 4.25H2.06136C1.98041 3.53875 1.97947 2.82067 2.05855 2.10922Z" fill="#112211"/>
</svg>
