<svg width="20" height="20" viewBox="0 0 20 20" fill="none" xmlns="http://www.w3.org/2000/svg">
<path d="M10.9998 18.3501C11.0332 18.6668 10.9292 18.9378 10.6878 19.1631C10.4458 19.3878 10.1748 19.4751 9.87482 19.4251C6.97482 18.9918 4.67482 17.8708 2.97482 16.0621C1.27482 14.2541 0.308153 11.7918 0.0748193 8.6751C0.041486 8.34176 0.137153 8.06243 0.361819 7.8371C0.587153 7.61243 0.866486 7.5251 1.19982 7.5751C4.24982 7.99176 6.59982 9.16676 8.24982 11.1001C9.89982 13.0334 10.8165 15.4501 10.9998 18.3501ZM9.22482 0.475097C9.42482 0.191764 9.68715 0.0540971 10.0118 0.0620971C10.3372 0.0707638 10.5998 0.216764 10.7998 0.500097C11.5498 1.5501 12.2042 2.7001 12.7628 3.9501C13.3208 5.2001 13.6582 6.2501 13.7748 7.1001C13.1248 7.4001 12.3998 7.88743 11.5998 8.5621C10.7998 9.23743 10.2748 9.75843 10.0248 10.1251C9.79149 9.75843 9.25415 9.22076 8.41282 8.5121C7.57082 7.8041 6.85815 7.33343 6.27482 7.1001C6.40815 6.26676 6.74582 5.21243 7.28782 3.9371C7.82915 2.66243 8.47482 1.50843 9.22482 0.475097ZM18.8748 7.5751C19.1915 7.54176 19.4582 7.6291 19.6748 7.8371C19.8915 8.04576 19.9915 8.31676 19.9748 8.6501C19.8415 11.3334 19.1125 13.5128 17.7878 15.1881C16.4625 16.8628 14.8582 18.0334 12.9748 18.7001C12.9415 17.6834 12.7875 16.5294 12.5128 15.2381C12.2375 13.9461 11.8082 12.8334 11.2248 11.9001C11.9415 10.8001 13.0042 9.8501 14.4128 9.0501C15.8208 8.2501 17.3082 7.75843 18.8748 7.5751Z" fill="#112211"/>
</svg>
